<?xml version="1.0" encoding="iso-8859-1"?>
<!-- Generator: Adobe Illustrator 19.0.0, SVG Export Plug-In . SVG Version: 6.00 Build 0)  -->
<svg version="1.1" id="Capa_1" xmlns="http://www.w3.org/2000/svg" xmlns:xlink="http://www.w3.org/1999/xlink" x="0px" y="0px"
	 viewBox="0 0 512 512" style="enable-background:new 0 0 512 512;" xml:space="preserve">
<path style="fill:#9AE7FD;" d="M512,256c0,141.385-114.615,256-256,256S0,397.385,0,256S114.615,0,256,0S512,114.615,512,256z"/>
<path style="fill:#D0C731;" d="M511.298,275C501.575,407.511,390.993,512,256,512S10.425,407.511,0.702,275h28.443l-9.111-21.182
	c-0.802-1.865,1.364-3.601,3.01-2.41l24.125,17.456l1.046-57.452c0.041-2.248,3.186-2.729,3.897-0.596l15.464,46.41l22.766-54.951
	c0.881-2.127,4.067-1.326,3.838,0.965l-6.535,65.347l22.009-15.925c1.645-1.19,3.812,0.545,3.01,2.41L104.092,275H511.298z"/>
<path style="fill:#BFB617;" d="M472.849,29.334c0,0,2.662,1.033,7.196,2.849c-8.501,11.499-15.775,23.13-21.15,32.356
	c-25.338,43.494-78.85,62.492-125.367,43.257c-1.638-0.678-3.262-1.402-4.87-2.167c0.953-5.271,2.314-10.508,4.11-15.662l0,0
	C352.738,32.674,417.409,4.681,472.849,29.334z"/>
<path style="fill:#968F0F;" d="M444.805,51.334c-64.7,16.011-113.787,43.23-134.675,74.68c-1.334,2.008-4.043,2.554-6.051,1.221
	c-2.008-1.333-2.555-4.042-1.221-6.051c30.232-45.519,100.597-68.611,139.85-78.324c2.34-0.579,4.706,0.849,5.285,3.188
	C448.574,48.389,447.145,50.755,444.805,51.334z"/>
<path style="fill:#AC6A51;" d="M480.045,379.916c-9.642,17.395-21.236,33.558-34.511,48.17l-72.096-36.069l11.211-26.063
	c0.802-1.865-1.364-3.601-3.01-2.411l-22.009,15.925l6.535-65.347c0.229-2.291-2.957-3.091-3.838-0.965l-28.018,67.627
	l-21.311-15.42c-1.645-1.19-3.812,0.545-3.01,2.411l11.732,27.276c-22.206,15.542-50.177,44.775-62.715,44.951
	c-13.505,0.19-49.231-36.093-72.641-49.243l15.201-60.109c0.564-2.232-2.468-3.493-3.654-1.52l-33.647,56.031
	c-0.083-0.001-0.166-0.002-0.249-0.002l-8.045-25.647c-0.608-1.938-3.382-1.841-3.854,0.135l-6.975,29.227
	c-1.089,0.449-2.163,0.936-3.22,1.465l-75.457,37.75c-13.275-14.612-24.87-30.775-34.511-48.17l34.24-31.751
	C75.651,339.396,81,327.261,81,314.575V164.5h349.263v149.392c0,12.686,5.348,24.821,14.805,33.59L480.045,379.916z"/>
<path style="fill:#945B44;" d="M265.333,295.411c0,8.704,0,38.63,0,47.333c0,24.519-4.179,44.395-9.333,44.395
	s-9.333-19.876-9.333-44.395c0-8.703,0-38.63,0-47.333c0-24.519,4.179-44.395,9.333-44.395
	C261.154,251.016,265.333,270.892,265.333,295.411z M171.667,354.616c5.155,0,9.333-19.876,9.333-44.395c0-8.703,0-38.63,0-47.333
	c0-24.519-4.179-44.395-9.333-44.395s-9.333,19.876-9.333,44.395c0,8.703,0,38.63,0,47.333
	C162.333,334.74,166.512,354.616,171.667,354.616z M356.232,327.869c0.493-5.41,0.768-11.375,0.768-17.647c0-8.703,0-38.63,0-47.333
	c0-24.519-4.179-44.395-9.333-44.395s-9.333,19.876-9.333,44.395c0,8.703,0,38.63,0,47.333c0,21.148,3.11,38.831,7.272,43.295
	L356.232,327.869z M81,314.575c0,12.686-5.349,24.821-14.805,33.59l-34.24,31.751c3.277,5.913,6.798,11.671,10.516,17.286
	l47.165-39.871c9.457-8.769,14.805-20.904,14.805-33.589V173.667L81,164.5V314.575z"/>
<path style="fill:#D09247;" d="M431,164.5c0,25.681-78.35,46.5-175,46.5S81,190.181,81,164.5S159.35,118,256,118
	S431,138.819,431,164.5z"/>
<path style="fill:#FFDF8E;" d="M406,164.5c0,20.178-67.157,36.536-150,36.536S106,184.678,106,164.5s67.157-36.536,150-36.536
	S406,144.322,406,164.5z"/>
<path style="fill:#FBC56D;" d="M256,138.96c-57.911,0-104.858,11.435-104.858,25.54S198.089,190.04,256,190.04
	s104.858-11.435,104.858-25.54S313.911,138.96,256,138.96z M256,180.333c-45.471,0-82.333-7.089-82.333-15.833
	s36.862-15.833,82.333-15.833s82.333,7.089,82.333,15.833S301.471,180.333,256,180.333z M297.667,164.5
	c0,3.406-18.655,6.167-41.667,6.167s-41.667-2.761-41.667-6.167s18.655-6.167,41.667-6.167
	C279.012,158.333,297.667,161.094,297.667,164.5z"/>
<g>
</g>
<g>
</g>
<g>
</g>
<g>
</g>
<g>
</g>
<g>
</g>
<g>
</g>
<g>
</g>
<g>
</g>
<g>
</g>
<g>
</g>
<g>
</g>
<g>
</g>
<g>
</g>
<g>
</g>
</svg>
